# xmcd
#
# Track frame offsets: 
#        150
#        12510
#        24631
#        39430
#        54621
#        70004
#        83718
#        93590
#        108115
#        125453
#        137270
#        150420
#        167564
#        181754
#        202405
#        219463
#        232452
#        250133
#        263953
#        278931
#
# Disc length: 3894 seconds
#
# Revision: 0
# Processed by: cddbd v1.5.2PL0 Copyright (c) Steve Scherf et al.
# Submitted via: ExactAudioCopyFreeDBPlugin 1.0
#
DISCID=180f3414
DTITLE=Various Artist - Lost Deep Soul Treasures [S.O.S. Sounds of So
DTITLE=ul]
DYEAR=2014
DGENRE=Soul
TTITLE0=Chuck Thomas - What Can I Do?
TTITLE1=Donald Height - I'm Willing to Wait
TTITLE2=Shirley Lorene - I'll Run Your Hurt Away
TTITLE3=The Mighty Hannibal - I Just Want Some Love
TTITLE4=Ruby Johnson - I Want a Real Man
TTITLE5=Gary Brown - I Worry
TTITLE6=Walter Foster - Your Search is Over
TTITLE7=James Hann - I Found You
TTITLE8=L.J. Mitchell - It's a Shame
TTITLE9=Jean Stanback - I Still Love You
TTITLE10=Carroll Jones and The Soul Reflections - I Need You So Bad
TTITLE11=Joe Adams - Mender of Broken Hearts
TTITLE12=Lee Moore - I Been Down Too Long
TTITLE13=Otis Clay - Today My World Fell
TTITLE14=Little Royal - I'm Glad to Do It
TTITLE15=Carl Henderson - You're All I Need
TTITLE16=Lee Eldred - Leave Me Your Love
TTITLE17=The Persians - Too Much Pride
TTITLE18=Eddie Houston - That's How Much I Love You
TTITLE19=Gladys Tyler - That Man of Mine
EXTD=
EXTT0=
EXTT1=
EXTT2=
EXTT3=
EXTT4=
EXTT5=
EXTT6=
EXTT7=
EXTT8=
EXTT9=
EXTT10=
EXTT11=
EXTT12=
EXTT13=
EXTT14=
EXTT15=
EXTT16=
EXTT17=
EXTT18=
EXTT19=
PLAYORDER=
